HIERARCHY
ROOT Hips
{
	OFFSET 0.000000 71.427986 0.000000
	CHANNELS 6 Xposition Yposition Zposition Xrotation Yrotation Zrotation
	JOINT Pelvis
	{
		OFFSET 0.000000 0.000000 0.000000
		CHANNELS 3 Xrotation Yrotation Zrotation
		JOINT LeftUpLeg
		{
			OFFSET 6.797100 -2.508499 -1.318700
			CHANNELS 3 Xrotation Yrotation Zrotation
			JOINT LeftLeg
			{
				OFFSET 0.069008 -29.241863 0.690200
				CHANNELS 3 Xrotation Yrotation Zrotation
				JOINT LeftFoot
				{
					OFFSET -0.069008 -29.568123 -0.266800
					CHANNELS 3 Xrotation Yrotation Zrotation
					JOINT LeftToeBase
					{
						OFFSET 3.145500 -8.631000 16.059900
						CHANNELS 3 Xrotation Yrotation Zrotation
						End Site
						{
							OFFSET 0.000000 18.501587 0.000000
						}
					}
				}
			}
			JOINT Left_ShortSleeve
			{
				OFFSET 0.265923 -10.480953 1.153800
				CHANNELS 3 Xrotation Yrotation Zrotation
				End Site
				{
					OFFSET 1.725763 19.823879 0.000000
				}
			}
		}
		JOINT RightUpLeg
		{
			OFFSET -6.797100 -2.508499 -1.318700
			CHANNELS 3 Xrotation Yrotation Zrotation
			JOINT RightLeg
			{
				OFFSET -0.082453 -29.241932 0.688000
				CHANNELS 3 Xrotation Yrotation Zrotation
				JOINT RightFoot
				{
					OFFSET 0.082453 -29.568058 -0.264600
					CHANNELS 3 Xrotation Yrotation Zrotation
					JOINT RightToeBase
					{
						OFFSET -3.115300 -8.682800 16.113400
						CHANNELS 3 Xrotation Yrotation Zrotation
						End Site
						{
							OFFSET 0.000000 18.567114 0.000000
						}
					}
				}
			}
			JOINT Right_ShortSleeve
			{
				OFFSET -0.265923 -10.480953 1.153800
				CHANNELS 3 Xrotation Yrotation Zrotation
				End Site
				{
					OFFSET -1.725766 19.823910 0.000000
				}
			}
		}
	}
	JOINT Spine
	{
		OFFSET 0.000000 13.368103 0.470500
		CHANNELS 3 Xrotation Yrotation Zrotation
		JOINT Spine1
		{
			OFFSET 0.147000 13.837402 0.538800
			CHANNELS 3 Xrotation Yrotation Zrotation
			JOINT Spine2
			{
				OFFSET 0.168000 16.242897 -1.435500
				CHANNELS 3 Xrotation Yrotation Zrotation
				JOINT Neck
				{
					OFFSET 0.217200 18.631500 -1.679100
					CHANNELS 3 Xrotation Yrotation Zrotation
					JOINT Head
					{
						OFFSET 0.000000 6.599396 1.385900
						CHANNELS 3 Xrotation Yrotation Zrotation
						JOINT Hat
						{
							OFFSET -0.532200 27.220596 -10.096100
							CHANNELS 3 Xrotation Yrotation Zrotation
							End Site
							{
								OFFSET 0.000000 22.029861 0.000000
							}
						}
						JOINT HairD
						{
							OFFSET -10.777400 17.437393 -1.325900
							CHANNELS 3 Xrotation Yrotation Zrotation
							JOINT HairD1
							{
								OFFSET -3.290299 -11.051193 1.062200
								CHANNELS 3 Xrotation Yrotation Zrotation
								End Site
								{
									OFFSET 0.000000 11.579437 0.000000
								}
							}
						}
						JOINT HairB
						{
							OFFSET -10.777400 17.437393 1.467900
							CHANNELS 3 Xrotation Yrotation Zrotation
							JOINT HairB1
							{
								OFFSET -1.561200 -12.956299 3.590200
								CHANNELS 3 Xrotation Yrotation Zrotation
								End Site
								{
									OFFSET 0.000000 13.534866 0.000000
								}
							}
						}
						JOINT HairA
						{
							OFFSET 9.713100 17.437393 1.467900
							CHANNELS 3 Xrotation Yrotation Zrotation
							JOINT HairA1
							{
								OFFSET 1.561200 -12.956299 3.590200
								CHANNELS 3 Xrotation Yrotation Zrotation
								End Site
								{
									OFFSET 0.000000 13.534866 0.000000
								}
							}
						}
						JOINT HairC
						{
							OFFSET 9.713100 17.437393 -1.325900
							CHANNELS 3 Xrotation Yrotation Zrotation
							JOINT HairC1
							{
								OFFSET 3.290300 -11.051193 1.062200
								CHANNELS 3 Xrotation Yrotation Zrotation
								End Site
								{
									OFFSET 0.000000 11.579437 0.000000
								}
							}
						}
					}
				}
				JOINT LeftShoulder
				{
					OFFSET 5.101800 15.108002 -2.763700
					CHANNELS 3 Xrotation Yrotation Zrotation
					JOINT LeftArm
					{
						OFFSET 9.825497 2.506317 -1.597400
						CHANNELS 3 Xrotation Yrotation Zrotation
						JOINT LeftForeArm
						{
							OFFSET 21.966244 0.000000 0.000000
							CHANNELS 3 Xrotation Yrotation Zrotation
							JOINT LeftHand
							{
								OFFSET 33.879036 0.000000 0.000000
								CHANNELS 3 Xrotation Yrotation Zrotation
								JOINT LeftHandThumb1
								{
									OFFSET 6.715286 -2.359680 3.363841
									CHANNELS 3 Xrotation Yrotation Zrotation
									JOINT LeftHandThumb2
									{
										OFFSET 2.507072 -1.447464 1.447461
										CHANNELS 3 Xrotation Yrotation Zrotation
										JOINT LeftHandThumb3
										{
											OFFSET 2.898338 -1.673355 1.673357
											CHANNELS 3 Xrotation Yrotation Zrotation
											End Site
											{
												OFFSET -0.295959 3.727692 -0.131651
											}
										}
									}
								}
								JOINT LeftHandIndex1
								{
									OFFSET 14.190811 -0.254547 3.840278
									CHANNELS 3 Xrotation Yrotation Zrotation
									JOINT LeftHandIndex2
									{
										OFFSET 3.551727 0.000000 -0.000000
										CHANNELS 3 Xrotation Yrotation Zrotation
										JOINT LeftHandIndex3
										{
											OFFSET 2.894196 0.000000 0.000000
											CHANNELS 3 Xrotation Yrotation Zrotation
											End Site
											{
												OFFSET -1.000603 2.690872 0.366626
											}
										}
									}
								}
								JOINT LeftHandMiddle1
								{
									OFFSET 13.776489 0.000000 0.000000
									CHANNELS 3 Xrotation Yrotation Zrotation
									JOINT LeftHandMiddle2
									{
										OFFSET 3.438232 0.000000 0.000000
										CHANNELS 3 Xrotation Yrotation Zrotation
										JOINT LeftHandMiddle3
										{
											OFFSET 3.691551 0.000000 0.000000
											CHANNELS 3 Xrotation Yrotation Zrotation
											End Site
											{
												OFFSET -1.082298 3.499527 0.457670
											}
										}
									}
								}
								JOINT LeftHandRing1
								{
									OFFSET 13.966164 -0.268127 -3.067488
									CHANNELS 3 Xrotation Yrotation Zrotation
									JOINT LeftHandRing2
									{
										OFFSET 3.162567 0.000000 0.000000
										CHANNELS 3 Xrotation Yrotation Zrotation
										JOINT LeftHandRing3
										{
											OFFSET 3.324348 0.000000 0.000000
											CHANNELS 3 Xrotation Yrotation Zrotation
											End Site
											{
												OFFSET -0.861900 3.184998 0.405154
											}
										}
									}
								}
								JOINT LeftHandPinky1
								{
									OFFSET 13.131393 -0.168503 -5.746925
									CHANNELS 3 Xrotation Yrotation Zrotation
									JOINT LeftHandPinky2
									{
										OFFSET 2.849182 0.000000 0.000000
										CHANNELS 3 Xrotation Yrotation Zrotation
										JOINT LeftHandPinky3
										{
											OFFSET 2.805038 0.000000 0.000000
											CHANNELS 3 Xrotation Yrotation Zrotation
											End Site
											{
												OFFSET -0.882500 2.642609 0.325652
											}
										}
									}
								}
							}
							JOINT Left_Sleeve
							{
								OFFSET 6.592125 -0.646545 0.805568
								CHANNELS 3 Xrotation Yrotation Zrotation
								End Site
								{
									OFFSET -0.000179 20.275787 -0.000000
								}
							}
						}
					}
				}
				JOINT RightShoulder
				{
					OFFSET -5.731700 15.108002 -2.763700
					CHANNELS 3 Xrotation Yrotation Zrotation
					JOINT RightArm
					{
						OFFSET -9.825497 2.506317 -1.597400
						CHANNELS 3 Xrotation Yrotation Zrotation
						JOINT RightForeArm
						{
							OFFSET -21.966242 0.000000 0.000000
							CHANNELS 3 Xrotation Yrotation Zrotation
							JOINT RightHand
							{
								OFFSET -33.879032 0.000000 0.000000
								CHANNELS 3 Xrotation Yrotation Zrotation
								JOINT RightHandThumb1
								{
									OFFSET -6.715286 -2.359680 3.363841
									CHANNELS 3 Xrotation Yrotation Zrotation
									JOINT RightHandThumb2
									{
										OFFSET -2.507072 -1.447464 1.447461
										CHANNELS 3 Xrotation Yrotation Zrotation
										JOINT RightHandThumb3
										{
											OFFSET -2.898338 -1.673355 1.673357
											CHANNELS 3 Xrotation Yrotation Zrotation
											End Site
											{
												OFFSET 0.295959 3.727692 -0.131651
											}
										}
									}
								}
								JOINT RightHandIndex1
								{
									OFFSET -14.190811 -0.254547 3.840278
									CHANNELS 3 Xrotation Yrotation Zrotation
									JOINT RightHandIndex2
									{
										OFFSET -3.551727 0.000000 -0.000000
										CHANNELS 3 Xrotation Yrotation Zrotation
										JOINT RightHandIndex3
										{
											OFFSET -2.894196 0.000000 0.000000
											CHANNELS 3 Xrotation Yrotation Zrotation
											End Site
											{
												OFFSET 1.000603 2.690872 0.366626
											}
										}
									}
								}
								JOINT RightHandMiddle1
								{
									OFFSET -13.776489 0.000000 0.000000
									CHANNELS 3 Xrotation Yrotation Zrotation
									JOINT RightHandMiddle2
									{
										OFFSET -3.438232 0.000000 0.000000
										CHANNELS 3 Xrotation Yrotation Zrotation
										JOINT RightHandMiddle3
										{
											OFFSET -3.691551 0.000000 0.000000
											CHANNELS 3 Xrotation Yrotation Zrotation
											End Site
											{
												OFFSET 1.082298 3.499527 0.457670
											}
										}
									}
								}
								JOINT RightHandRing1
								{
									OFFSET -13.966164 -0.268127 -3.067488
									CHANNELS 3 Xrotation Yrotation Zrotation
									JOINT RightHandRing2
									{
										OFFSET -3.162567 0.000000 0.000000
										CHANNELS 3 Xrotation Yrotation Zrotation
										JOINT RightHandRing3
										{
											OFFSET -3.324348 0.000000 0.000000
											CHANNELS 3 Xrotation Yrotation Zrotation
											End Site
											{
												OFFSET 0.861900 3.184998 0.405154
											}
										}
									}
								}
								JOINT RightHandPinky1
								{
									OFFSET -13.131393 -0.168503 -5.746925
									CHANNELS 3 Xrotation Yrotation Zrotation
									JOINT RightHandPinky2
									{
										OFFSET -2.849182 0.000000 0.000000
										CHANNELS 3 Xrotation Yrotation Zrotation
										JOINT RightHandPinky3
										{
											OFFSET -2.805038 0.000000 0.000000
											CHANNELS 3 Xrotation Yrotation Zrotation
											End Site
											{
												OFFSET 0.882500 2.642609 0.325652
											}
										}
									}
								}
							}
							JOINT Right_Sleeve
							{
								OFFSET -6.592125 -0.646545 0.805568
								CHANNELS 3 Xrotation Yrotation Zrotation
								End Site
								{
									OFFSET 0.000179 20.275787 -0.000000
								}
							}
						}
					}
				}
				JOINT Bind_Right_JacketString
				{
					OFFSET -3.534800 11.969597 7.200700
					CHANNELS 3 Xrotation Yrotation Zrotation
					JOINT Bind_Right_JacketString1
					{
						OFFSET -0.319900 -6.102600 2.794100
						CHANNELS 3 Xrotation Yrotation Zrotation
						End Site
						{
							OFFSET 0.000000 6.719452 0.000000
						}
					}
				}
				JOINT Bind_Left_JacketString
				{
					OFFSET 2.904800 11.969597 7.200700
					CHANNELS 3 Xrotation Yrotation Zrotation
					JOINT Bind_Left_JacketString1
					{
						OFFSET 0.364800 -5.904503 3.186800
						CHANNELS 3 Xrotation Yrotation Zrotation
						End Site
						{
							OFFSET 0.000000 6.719513 0.000000
						}
					}
				}
				JOINT HairE
				{
					OFFSET 5.915200 17.612701 -11.592200
					CHANNELS 3 Xrotation Yrotation Zrotation
					JOINT HairE1
					{
						OFFSET 0.289200 -7.171898 -1.284500
						CHANNELS 3 Xrotation Yrotation Zrotation
						End Site
						{
							OFFSET 0.000000 7.291756 0.000000
						}
					}
				}
				JOINT HairF
				{
					OFFSET -0.864800 17.612701 -11.592200
					CHANNELS 3 Xrotation Yrotation Zrotation
					JOINT HairF1
					{
						OFFSET 0.000000 -14.087097 -2.127501
						CHANNELS 3 Xrotation Yrotation Zrotation
						End Site
						{
							OFFSET 0.000000 14.246841 0.000000
						}
					}
				}
				JOINT HairG
				{
					OFFSET -8.087700 17.612701 -11.592200
					CHANNELS 3 Xrotation Yrotation Zrotation
					JOINT HairG1
					{
						OFFSET -0.293600 -6.081398 -0.910100
						CHANNELS 3 Xrotation Yrotation Zrotation
						End Site
						{
							OFFSET 0.000000 6.156120 0.000000
						}
					}
				}
			}
		}
	}
	JOINT Pouch
	{
		OFFSET 0.000000 4.394501 10.847300
		CHANNELS 3 Xrotation Yrotation Zrotation
		End Site
		{
			OFFSET 0.000000 21.880577 0.000000
		}
	}
	JOINT Bag
	{
		OFFSET -13.229000 4.813004 -0.593300
		CHANNELS 3 Xrotation Yrotation Zrotation
		End Site
		{
			OFFSET 0.000000 21.880577 0.000000
		}
	}
	JOINT OccupyGuyFacialAnim_Joint
	{
		OFFSET 1.000000 -70.206398 -1.655000
		CHANNELS 3 Xrotation Yrotation Zrotation
		End Site
		{
			OFFSET 0.000000 21.880577 0.000000
		}
	}
}
MOTION
Frames: 4
Frame Time: 0.016667
0.008607 58.976265 0.588889 11.723195 3.055121 -1.299682 -0.000000 0.000000 -0.000000 -53.376586 1.922498 4.448398 76.598686 7.673622 -0.607431 -34.023529 5.633840 -5.303101 -0.000000 0.000000 -0.000000 -0.000001 0.000000 -0.000000 -51.348041 -15.117492 -5.590810 75.595338 -8.261439 -4.591556 -36.828592 -10.242440 4.158018 -0.000000 -0.000000 -0.000000 0.000002 -0.000001 -0.000001 9.926757 1.439489 1.212584 7.645330 0.753229 0.067567 7.636951 0.840686 0.048856 -11.425857 -1.903121 7.327009 -27.420392 2.052766 -6.271737 -0.000000 0.000000 0.000000 -0.000000 0.000000 0.000000 -0.000000 0.000000 0.000000 -0.000000 0.000000 -0.000000 0.000000 -0.000000 -0.000000 -0.000000 0.000000 -0.000000 0.000000 -0.000000 -0.000000 -0.000000 0.000000 0.000000 -0.000000 0.000000 0.000000 3.557345 -26.212547 4.772369 -62.403279 -21.804173 -66.739008 0.000110 -109.450435 0.000132 0.778312 -4.236619 14.397171 -15.245218 10.163068 26.456306 3.939053 7.948697 0.746822 0.000000 0.000003 0.000001 0.000008 -0.000005 0.000003 0.000003 0.000020 -0.000072 0.000001 -0.000000 -0.000002 0.000007 -0.001928 0.015985 -0.000001 0.001941 -0.016055 -0.000000 0.000002 0.000001 0.000005 -0.000003 0.000006 0.000005 0.000013 -0.000054 -0.000001 -0.000002 -0.000001 -0.018080 4.054252 0.511073 -0.018084 -4.054240 -0.511132 -0.000000 -0.000001 0.000001 0.000003 -0.000000 -0.000000 1.209604 13.189585 10.689360 -58.736806 43.251193 51.659842 0.000020 106.371850 -0.000044 2.773285 -4.037750 -38.887689 -6.948222 -5.049347 -29.743001 4.637202 -8.634136 -0.225420 -0.000002 -0.000001 0.000000 0.000006 -0.000003 -0.000011 0.000011 -0.000004 0.000068 -0.000001 0.000001 0.000001 0.000002 0.000004 0.000004 0.000014 -0.000016 0.000082 0.000000 0.000000 0.000001 0.000002 0.000002 0.000004 0.000010 -0.000004 0.000068 0.000001 -0.000001 -0.000001 0.000009 -0.000002 -0.000011 -0.000002 -0.000006 0.000089 -0.000001 -0.000001 0.000002 0.000001 0.000001 0.000000 -0.000003 0.000000 -0.000000 -0.000002 0.000000 -0.000000 -0.000003 0.000000 -0.000000 -0.000003 0.000000 -0.000000 -0.000003 0.000000 -0.000000 -0.000002 0.000000 -0.000000 -0.000003 0.000000 -0.000000 -0.000003 0.000000 -0.000000 -0.000003 0.000000 -0.000000 -0.000002 0.000000 -0.000000 -0.000000 0.000000 -0.000000 -0.000000 0.000000 -0.000000 -0.000000 0.000000 -0.000000 
0.010295 58.978127 0.590875 11.745868 3.050786 -1.305432 -0.000000 0.000000 -0.000000 -53.396527 1.914559 4.466962 76.598782 7.670092 -0.635722 -34.018201 5.631304 -5.291911 0.000000 -0.000000 0.000000 0.000003 0.000000 -0.000000 -51.363286 -15.121247 -5.581033 75.583427 -8.268721 -4.599678 -36.822380 -10.241674 4.165233 -0.000000 -0.000000 0.000000 -0.000000 -0.000000 -0.000000 9.918360 1.447793 1.204222 7.639422 0.760471 0.063173 7.630977 0.847824 0.044426 -11.435406 -1.910256 7.339548 -27.433916 2.035674 -6.273738 -0.000000 0.000000 0.000000 -0.000000 0.000000 0.000000 -0.000000 0.000000 0.000000 -0.000000 0.000000 0.000000 0.000000 0.000000 0.000000 -0.000000 0.000000 0.000000 0.000000 0.000000 0.000000 -0.000000 0.000000 0.000000 -0.000000 0.000000 0.000000 3.557353 -26.212550 4.772368 -62.419337 -21.858356 -66.778650 -0.000148 -109.501367 -0.000161 0.901649 -4.326314 14.359168 -15.245220 10.163063 26.456304 3.939057 7.948698 0.746823 -0.000001 0.000003 -0.000001 0.000007 -0.000002 0.000003 0.000003 0.000022 -0.000076 0.000002 -0.000000 -0.000000 0.000005 -0.001925 0.015985 -0.000004 0.001945 -0.016056 0.000001 0.000000 0.000001 0.000004 -0.000004 0.000007 0.000005 0.000014 -0.000053 0.000000 0.000002 -0.000001 -0.018081 4.054253 0.511073 -0.018085 -4.054239 -0.511129 -0.000001 0.000003 -0.000000 -0.000000 -0.000001 0.000001 1.208780 13.185485 10.706560 -58.718487 43.222540 51.623161 -0.000068 106.496371 0.000082 2.902263 -4.000207 -38.894816 -6.948222 -5.049348 -29.743001 4.637200 -8.634129 -0.225421 -0.000000 0.000001 -0.000001 0.000006 -0.000003 -0.000010 0.000011 -0.000007 0.000067 0.000001 0.000001 0.000000 0.000001 0.000002 0.000004 0.000015 -0.000014 0.000081 0.000001 -0.000002 0.000002 0.000002 0.000001 0.000005 0.000010 -0.000006 0.000066 -0.000000 0.000001 -0.000001 0.000008 0.000000 -0.000011 -0.000004 -0.000007 0.000087 0.000001 0.000001 -0.000003 0.000002 -0.000003 0.000003 0.000002 0.000000 -0.000000 0.000003 0.000000 -0.000000 0.000002 0.000000 -0.000000 0.000002 0.000000 -0.000000 0.000002 0.000000 -0.000000 0.000003 0.000000 -0.000000 0.000002 0.000000 -0.000000 0.000002 0.000000 -0.000000 0.000002 0.000000 -0.000000 0.000003 0.000000 -0.000000 -0.000000 0.000000 -0.000000 -0.000000 0.000000 -0.000000 -0.000000 0.000000 -0.000000 
0.012381 58.979103 0.593531 11.766488 3.045446 -1.315494 0.000001 -0.000000 0.000000 -53.417240 1.901114 4.488577 76.605202 7.663667 -0.668036 -34.012679 5.640529 -5.277236 0.000000 -0.000002 0.000000 0.000004 -0.000000 0.000001 -51.375911 -15.128555 -5.569522 75.573557 -8.274947 -4.606634 -36.817793 -10.241081 4.172160 -0.000000 -0.000000 0.000000 0.000001 -0.000001 0.000000 9.909591 1.458767 1.197481 7.633176 0.769255 0.058698 7.624628 0.856615 0.039881 -11.444195 -1.923866 7.361599 -27.436178 1.999901 -6.276384 -0.000000 0.000000 -0.000000 -0.000000 0.000000 -0.000000 -0.000000 0.000000 -0.000000 -0.000000 0.000000 -0.000000 0.000000 -0.000000 -0.000000 -0.000000 0.000000 -0.000000 0.000000 -0.000000 -0.000000 -0.000000 0.000000 -0.000000 -0.000000 0.000000 -0.000000 3.557349 -26.212550 4.772370 -62.439561 -21.913832 -66.819556 0.000110 -109.545791 0.000099 1.016386 -4.380402 14.319669 -15.245218 10.163067 26.456304 3.939057 7.948697 0.746821 0.000001 0.000001 -0.000000 0.000007 -0.000004 0.000004 0.000004 0.000020 -0.000072 0.000002 -0.000001 -0.000000 0.000007 -0.001927 0.015986 -0.000003 0.001941 -0.016054 -0.000000 0.000001 0.000001 0.000006 -0.000006 0.000005 0.000006 0.000016 -0.000055 -0.000000 -0.000001 0.000001 -0.018079 4.054254 0.511073 -0.018085 -4.054238 -0.511132 0.000002 0.000000 0.000001 0.000000 0.000001 0.000001 1.207725 13.175773 10.734726 -58.706890 43.206117 51.589669 -0.000014 106.607266 0.000021 2.994833 -3.971797 -38.906014 -6.948222 -5.049354 -29.743001 4.637206 -8.634133 -0.225422 -0.000003 0.000004 -0.000000 0.000006 -0.000010 -0.000011 0.000010 -0.000004 0.000068 -0.000001 -0.000001 0.000000 0.000001 -0.000002 0.000003 0.000014 -0.000017 0.000081 0.000000 -0.000001 -0.000001 0.000003 -0.000003 0.000005 0.000011 -0.000002 0.000069 -0.000000 0.000000 -0.000003 0.000009 -0.000005 -0.000010 -0.000002 -0.000006 0.000087 0.000001 0.000003 -0.000001 0.000003 -0.000000 0.000000 -0.000000 -0.000000 0.000000 -0.000000 -0.000000 0.000000 -0.000000 -0.000000 0.000000 -0.000000 -0.000000 0.000000 -0.000000 -0.000000 0.000000 -0.000000 -0.000000 0.000000 -0.000000 -0.000000 0.000000 -0.000000 -0.000000 0.000000 -0.000000 -0.000000 0.000000 -0.000000 -0.000000 0.000000 0.000001 -0.000000 0.000000 0.000001 -0.000000 0.000000 0.000001 -0.000000 0.000000 
0.015144 58.979233 0.596960 11.784927 3.039006 -1.328714 -0.000000 0.000000 -0.000000 -53.437744 1.887402 4.511418 76.616021 7.654808 -0.698554 -34.008215 5.658207 -5.260522 -0.000000 0.000000 0.000000 0.000003 -0.000001 -0.000000 -51.385733 -15.138262 -5.558230 75.565586 -8.280678 -4.611133 -36.814638 -10.238670 4.179160 0.000000 -0.000000 -0.000000 0.000002 0.000001 -0.000000 9.900578 1.472865 1.191866 7.626658 0.780095 0.054113 7.617970 0.867545 0.035189 -11.454972 -1.944256 7.391729 -27.423204 1.943258 -6.281666 0.000000 -0.000000 -0.000000 0.000000 -0.000000 -0.000000 0.000000 -0.000000 -0.000000 0.000000 -0.000000 -0.000000 0.000000 0.000000 -0.000000 0.000000 -0.000000 -0.000000 0.000000 0.000000 -0.000000 0.000000 -0.000000 -0.000000 0.000000 -0.000000 -0.000000 3.557349 -26.212548 4.772369 -62.470379 -21.973998 -66.864519 0.000110 -109.579737 0.000123 1.123950 -4.400889 14.281695 -15.245218 10.163061 26.456302 3.939054 7.948695 0.746824 -0.000001 0.000004 0.000002 0.000007 -0.000005 0.000003 0.000003 0.000021 -0.000074 0.000000 0.000002 -0.000002 0.000006 -0.001928 0.015982 -0.000005 0.001940 -0.016057 0.000002 0.000003 -0.000004 0.000005 -0.000006 0.000005 0.000005 0.000017 -0.000055 -0.000001 0.000000 0.000001 -0.018079 4.054250 0.511071 -0.018085 -4.054239 -0.511130 0.000001 -0.000002 0.000004 0.000000 0.000001 -0.000000 1.206692 13.162144 10.768368 -58.707634 43.191142 51.562717 0.000037 106.707048 -0.000031 3.052724 -3.952018 -38.913357 -6.948219 -5.049351 -29.743001 4.637202 -8.634132 -0.225419 0.000000 -0.000001 -0.000000 0.000007 -0.000004 -0.000011 0.000010 -0.000004 0.000068 0.000000 0.000001 0.000000 0.000002 -0.000001 0.000003 0.000014 -0.000014 0.000083 -0.000000 -0.000000 0.000001 0.000002 -0.000003 0.000005 0.000010 -0.000007 0.000069 -0.000000 -0.000001 -0.000000 0.000010 -0.000004 -0.000010 -0.000001 -0.000006 0.000087 -0.000000 0.000001 0.000001 0.000001 -0.000001 0.000003 0.000002 -0.000000 -0.000000 0.000004 -0.000000 0.000000 0.000002 -0.000000 0.000000 0.000002 -0.000000 0.000000 0.000002 -0.000000 -0.000000 0.000004 -0.000000 0.000000 0.000002 -0.000000 0.000000 0.000002 -0.000000 0.000000 0.000002 -0.000000 -0.000000 0.000004 -0.000000 0.000000 -0.000000 0.000000 -0.000000 -0.000000 0.000000 -0.000000 -0.000000 0.000000 -0.000000 
